<?xml version="1.0" encoding="UTF-8" standalone="no"?>
<svg width="512" height="512" viewBox="0 0 512 512" fill="none" xmlns="http://www.w3.org/2000/svg">
  <!-- Background circle with mint/teal color -->
  <circle cx="256" cy="256" r="256" fill="#89b0ae"/>
  
  <!-- Stylized "W" in white -->
  <path d="M128 160 L168 352 L208 224 L256 352 L304 224 L344 352 L384 160" 
        stroke="white" stroke-width="32" stroke-linecap="round" stroke-linejoin="round" fill="none"/>
        
  <!-- Speech bubble outline around the W -->
  <path d="M400 112 Q432 112 456 136 Q480 160 480 192 V320 Q480 352 456 376 Q432 400 400 400 H256 L160 464 V400 H112 Q80 400 56 376 Q32 352 32 320 V192 Q32 160 56 136 Q80 112 112 112 Z" 
        stroke="white" stroke-width="16" stroke-linecap="round" stroke-linejoin="round" fill="none"/>
</svg>
